# xmcd
#
# Track frame offsets:
#	150
#	18759
#	34072
#	57316
#	72074
#	85048
#	108344
#	127909
#	149877
#	162797
#	178548
#	190777
#	209749
#	224043
#	251680
#	267415
#	286206
#	306326
#	321473
#
# Disc length: 4491 seconds
#
# Revision: 0
# Processed by: cddbd v1.5.2PL0 Copyright (c) Steve Scherf et al.
# Submitted via: EZCDAudioConverter 2.1.7.1
#
DISCID=24118913
DTITLE=James Booker - King of the New Orleans Keyboard
DYEAR=2011
DGENRE=blues
TTITLE0=How do you feel
TTITLE1=Classified
TTITLE2=One hell of a nerve
TTITLE3=Blues rhapsody
TTITLE4=Rockin' pneumonia
TTITLE5=Please send me someone to love
TTITLE6=All by myself
TTITLE7=Ain't nobody's business
TTITLE8=Something you got
TTITLE9=Harlem in Hamburg
TTITLE10=Put out the light
TTITLE11=Ray Charles medley
TTITLE12=Tipiaina - Loberta
TTITLE13=Junco partner
TTITLE14=Drown in the river
TTITLE15=Black night
TTITLE16=Goodnight sweetheart
TTITLE17=Lonely avenue
TTITLE18=Stormy Monday
EXTD=
EXTT0=
EXTT1=
EXTT2=
EXTT3=
EXTT4=
EXTT5=
EXTT6=
EXTT7=
EXTT8=
EXTT9=
EXTT10=
EXTT11=
EXTT12=
EXTT13=
EXTT14=
EXTT15=
EXTT16=
EXTT17=
EXTT18=
PLAYORDER=
